# xmcd CD database file
#
# Track frame offsets:
#	150
#	10812
#	23416
#	37069
#
# Disc length: 727 seconds
#
# Revision: 0
# Processed by: cddbd v1.5.1PL0 Copyright (c) Steve Scherf et al.
# Submitted via: CDex 1.51
#
DISCID=2202d504
DTITLE=openshow - let's go openshow!!
DYEAR=2003
DGENRE=Punk Rock
TTITLE0=レッツ・ゴー・オープンショウ!!
TTITLE1=ロマンチック
TTITLE2=コンコルド
TTITLE3=デセムバー
EXTD=YEAR: 2003.12.1
EXTT0=
EXTT1=
EXTT2=
EXTT3=
PLAYORDER=
